<svg width="44" height="45" viewBox="0 0 44 45" fill="none" xmlns="http://www.w3.org/2000/svg">
<g clip-path="url(#clip0_1_1259)">
<path d="M7.08594 8.61914H36.7302V38.0765H7.08594V8.61914Z" fill="#F5F5F5"/>
<path d="M8.8 36.1746V17.7386H14.432V36.1746H8.8ZM14.608 12.6346C14.652 14.2186 13.464 15.4946 11.572 15.4946C9.812 15.4946 8.668 14.2186 8.668 12.6346C8.668 11.0066 9.856 9.77461 11.66 9.77461C13.464 9.77461 14.608 11.0066 14.608 12.6346ZM29.392 36.1746V25.9666C29.392 23.5906 28.6 21.9626 26.532 21.9626C24.992 21.9626 24.068 23.0626 23.628 24.1186C23.496 24.5146 23.452 25.0426 23.452 25.5706V36.1746H17.82V23.6346C17.82 21.3466 17.732 19.4106 17.688 17.7386H22.572L22.836 20.3346H22.924C23.672 19.1026 25.52 17.3426 28.556 17.3426C32.252 17.3426 35.068 19.8506 35.068 25.3066V36.1746H29.392ZM44 4.84661C44 2.73461 42.24 0.974609 40.128 0.974609H3.872C1.76 0.974609 0 2.73461 0 4.84661V41.1026C0 43.2146 1.76 44.9746 3.872 44.9746H40.128C42.24 44.9746 44 43.2146 44 41.1026V4.84661Z" fill="#1D87BD"/>
</g>
<defs>
<clipPath id="clip0_1_1259">
<rect y="0.974609" width="44" height="44" rx="20" fill="white"/>
</clipPath>
</defs>
</svg>
